<?xml version="1.0" standalone="no"?>
<!DOCTYPE svg PUBLIC "-//W3C//DTD SVG 20010904//EN"
 "http://www.w3.org/TR/2001/REC-SVG-20010904/DTD/svg10.dtd">
<svg version="1.0" xmlns="http://www.w3.org/2000/svg"
 width="447.000000pt" height="447.000000pt" viewBox="0 0 447.000000 447.000000"
 preserveAspectRatio="xMidYMid meet">

<g transform="translate(0.000000,447.000000) scale(0.100000,-0.100000)"
fill="#000000" stroke="none">
<path d="M1966 3825 c-257 -31 -470 -95 -701 -210 -1083 -539 -1132 -1758 -95
-2362 52 -31 96 -57 97 -58 2 -1 -38 -144 -88 -319 -52 -184 -89 -331 -87
-349 4 -45 35 -46 106 -6 69 38 327 210 550 366 l163 114 94 -11 c121 -13 324
-13 456 1 825 84 1469 592 1574 1242 63 386 -86 787 -402 1088 -405 383 -1049
578 -1667 504z m-395 -1023 c39 -44 39 -90 0 -134 -29 -33 -31 -33 -130 -36
l-101 -4 0 -309 c0 -336 -3 -361 -54 -395 -37 -24 -104 -14 -133 21 -23 26
-23 28 -23 355 l0 328 -106 4 c-105 3 -106 3 -135 36 -48 53 -30 135 35 162
11 5 155 8 319 7 l299 -2 29 -33z m332 24 c44 -19 72 -51 97 -116 28 -70 149
-389 207 -545 70 -189 61 -242 -44 -252 -64 -7 -88 13 -123 103 l-28 69 -160
3 -160 2 -31 -78 c-34 -85 -54 -102 -114 -102 -18 0 -47 9 -64 20 -59 36 -54
62 88 439 149 396 160 419 219 449 51 26 69 27 113 8z m590 -26 l27 -30 0
-324 0 -324 134 -4 c125 -3 136 -5 160 -27 34 -32 41 -72 21 -111 -28 -55 -63
-62 -277 -58 l-190 3 -29 33 -29 32 0 389 c0 382 0 389 21 415 44 55 115 58
162 6z m548 24 c46 -23 59 -66 59 -196 l0 -112 153 152 c146 145 155 152 193
152 60 -1 104 -46 104 -106 0 -22 -27 -55 -130 -159 l-131 -132 135 -179 c77
-102 138 -193 142 -211 13 -66 -58 -133 -126 -118 -35 8 -66 42 -200 222 -98
131 -106 140 -122 125 -15 -13 -18 -33 -18 -134 0 -136 -12 -178 -59 -202 -51
-27 -97 -17 -133 28 -16 19 -18 57 -17 421 0 432 -2 420 55 450 37 19 57 19
95 -1z"/>
<path d="M1801 2432 c-24 -70 -46 -133 -49 -139 -3 -10 20 -13 98 -13 100 0
101 0 95 23 -22 72 -90 257 -94 257 -3 0 -26 -57 -50 -128z"/>
</g>
</svg>
